<?xml version="1.0" standalone="no"?>
<!DOCTYPE svg PUBLIC "-//W3C//DTD SVG 20010904//EN"
 "http://www.w3.org/TR/2001/REC-SVG-20010904/DTD/svg10.dtd">
<svg version="1.0" xmlns="http://www.w3.org/2000/svg"
 width="468.000000pt" height="176.000000pt" viewBox="0 0 468.000000 176.000000"
 preserveAspectRatio="xMidYMid meet">

<g transform="translate(0.000000,176.000000) scale(0.100000,-0.100000)"
fill="#000000" stroke="none">
<path d="M0 880 l0 -880 2340 0 2340 0 0 880 0 880 -2340 0 -2340 0 0 -880z
m3236 -12 l1 -278 -63 0 c-34 0 -64 5 -66 10 -2 7 -18 5 -43 -6 -33 -13 -48
-14 -90 -5 -91 21 -139 86 -140 192 0 55 4 72 28 108 44 67 139 99 211 71 l26
-10 0 94 c0 51 3 96 7 100 4 4 34 6 68 4 l60 -3 1 -277z m554 2 l0 -280 -65 0
-65 0 0 273 c0 151 3 277 7 280 3 4 33 7 65 7 l58 0 0 -280z m-2719 100 l47
-155 30 100 c17 55 37 126 46 158 l17 57 54 0 54 0 25 -82 c14 -46 35 -117 47
-158 12 -41 24 -68 27 -60 3 8 24 78 48 155 l42 140 66 3 c36 2 66 2 66 0 0
-2 -13 -43 -29 -93 -16 -49 -54 -170 -85 -267 l-57 -178 -53 0 -54 0 -20 68
c-11 37 -33 109 -48 161 l-28 94 -24 -79 c-13 -43 -34 -116 -48 -161 l-25 -83
-54 0 c-52 0 -54 1 -64 33 -11 35 -150 474 -157 495 -3 10 12 12 63 10 l68 -3
46 -155z m1282 127 c48 -36 70 -80 70 -138 1 -109 -69 -169 -200 -172 l-78 -2
-3 -97 -3 -98 -69 0 -70 0 0 271 0 270 158 -3 c156 -3 159 -3 195 -31z m-486
-142 c21 -9 46 -23 57 -33 29 -26 56 -92 56 -139 l0 -43 -97 -2 c-54 -1 -113
-2 -130 -1 -37 0 -41 -11 -16 -39 20 -22 94 -24 126 -3 22 14 25 13 56 -19
l32 -33 -27 -22 c-90 -71 -258 -40 -312 58 -29 53 -34 100 -17 157 24 83 95
133 188 134 26 0 64 -7 84 -15z m783 0 c17 -9 30 -11 30 -5 0 6 27 10 65 10
l65 0 0 -185 0 -185 -65 0 c-36 0 -65 4 -65 9 0 5 -19 2 -42 -6 -143 -49 -269
101 -217 258 32 95 146 147 229 104z m898 -6 c24 -12 54 -37 68 -59 25 -38 44
-133 28 -143 -5 -3 -65 -7 -132 -8 -68 -2 -126 -7 -128 -11 -3 -4 4 -16 16
-28 25 -25 95 -27 129 -4 22 16 24 15 53 -14 18 -17 28 -36 25 -45 -10 -28
-79 -52 -149 -51 -56 0 -74 5 -114 30 -130 81 -119 272 21 335 54 25 128 24
183 -2z"/>
<path d="M2985 830 c-27 -30 -25 -88 4 -111 70 -57 158 34 105 109 -20 30 -83
31 -109 2z"/>
<path d="M2140 954 l0 -77 56 6 c68 7 94 28 94 74 0 51 -29 73 -95 73 l-55 0
0 -76z"/>
<path d="M1732 853 l-27 -28 74 -3 c40 -2 76 0 80 3 11 11 -49 55 -75 55 -14
0 -37 -12 -52 -27z"/>
<path d="M2561 824 c-28 -35 -26 -69 4 -99 31 -32 69 -32 102 1 21 21 24 32
19 62 -7 44 -28 62 -72 62 -23 0 -39 -8 -53 -26z"/>
<path d="M3406 859 c-14 -11 -26 -25 -26 -30 0 -5 32 -9 70 -9 76 0 91 14 48
44 -31 22 -60 20 -92 -5z"/>
</g>
</svg>
